<mxfile host="app.diagrams.net" modified="2023-05-08T14:28:49.236Z" agent="Mozilla/5.0 (Windows NT 10.0; Win64; x64) AppleWebKit/537.36 (KHTML, like Gecko) Chrome/112.0.0.0 Safari/537.36" etag="dzAGjzjOUpGN-Ev7sz6J" version="21.2.9" type="device">
  <diagram name="Página-1" id="yvU-qytI6p2FUQjCA9TP">
    <mxGraphModel dx="1434" dy="1965" grid="1" gridSize="10" guides="1" tooltips="1" connect="1" arrows="1" fold="1" page="1" pageScale="1" pageWidth="827" pageHeight="1169" math="0" shadow="0">
      <root>
        <mxCell id="0" />
        <mxCell id="1" parent="0" />
        <mxCell id="-Uyj4AZ34t3rxBjbGBbm-1" value="Automóvel" style="whiteSpace=wrap;html=1;align=center;fillColor=#f8cecc;strokeColor=#b85450;fontColor=#B85450;labelBorderColor=none;labelBackgroundColor=none;fontStyle=1" vertex="1" parent="1">
          <mxGeometry x="220" y="200" width="100" height="40" as="geometry" />
        </mxCell>
        <mxCell id="-Uyj4AZ34t3rxBjbGBbm-3" value="Modelo" style="whiteSpace=wrap;html=1;align=center;fillColor=#f8cecc;strokeColor=#b85450;fontColor=#B85450;labelBorderColor=none;labelBackgroundColor=none;fontStyle=1" vertex="1" parent="1">
          <mxGeometry x="640" y="200" width="100" height="40" as="geometry" />
        </mxCell>
        <mxCell id="-Uyj4AZ34t3rxBjbGBbm-4" value="codigo" style="ellipse;whiteSpace=wrap;html=1;align=center;fontStyle=5;fillColor=#d5e8d4;strokeColor=#82b366;fontColor=#445E36;" vertex="1" parent="1">
          <mxGeometry x="50" y="25" width="60" height="30" as="geometry" />
        </mxCell>
        <mxCell id="-Uyj4AZ34t3rxBjbGBbm-6" value="placa" style="ellipse;whiteSpace=wrap;html=1;align=center;fillColor=#d5e8d4;strokeColor=#82b366;fontColor=#445E36;fontStyle=1" vertex="1" parent="1">
          <mxGeometry x="50" y="65" width="60" height="30" as="geometry" />
        </mxCell>
        <mxCell id="-Uyj4AZ34t3rxBjbGBbm-7" value="cor" style="ellipse;whiteSpace=wrap;html=1;align=center;fillColor=#d5e8d4;strokeColor=#82b366;fontColor=#445E36;fontStyle=1" vertex="1" parent="1">
          <mxGeometry x="50" y="105" width="60" height="30" as="geometry" />
        </mxCell>
        <mxCell id="-Uyj4AZ34t3rxBjbGBbm-8" value="ano" style="ellipse;whiteSpace=wrap;html=1;align=center;fillColor=#d5e8d4;strokeColor=#82b366;fontColor=#445E36;fontStyle=1" vertex="1" parent="1">
          <mxGeometry x="50" y="145" width="60" height="30" as="geometry" />
        </mxCell>
        <mxCell id="-Uyj4AZ34t3rxBjbGBbm-9" value="combust" style="ellipse;whiteSpace=wrap;html=1;align=center;fillColor=#d5e8d4;strokeColor=#82b366;fontColor=#445E36;fontStyle=1" vertex="1" parent="1">
          <mxGeometry x="50" y="185" width="60" height="30" as="geometry" />
        </mxCell>
        <mxCell id="-Uyj4AZ34t3rxBjbGBbm-10" value="n° portas" style="ellipse;whiteSpace=wrap;html=1;align=center;fillColor=#d5e8d4;strokeColor=#82b366;fontColor=#445E36;fontStyle=1" vertex="1" parent="1">
          <mxGeometry x="50" y="225" width="60" height="30" as="geometry" />
        </mxCell>
        <mxCell id="-Uyj4AZ34t3rxBjbGBbm-11" value="Km" style="ellipse;whiteSpace=wrap;html=1;align=center;fillColor=#d5e8d4;strokeColor=#82b366;fontColor=#445E36;fontStyle=1" vertex="1" parent="1">
          <mxGeometry x="50" y="265" width="60" height="30" as="geometry" />
        </mxCell>
        <mxCell id="-Uyj4AZ34t3rxBjbGBbm-12" value="renavam" style="ellipse;whiteSpace=wrap;html=1;align=center;fillColor=#d5e8d4;strokeColor=#82b366;fontColor=#445E36;fontStyle=1" vertex="1" parent="1">
          <mxGeometry x="50" y="305" width="60" height="30" as="geometry" />
        </mxCell>
        <mxCell id="-Uyj4AZ34t3rxBjbGBbm-13" value="chassi" style="ellipse;whiteSpace=wrap;html=1;align=center;fillColor=#d5e8d4;strokeColor=#82b366;fontColor=#445E36;fontStyle=1" vertex="1" parent="1">
          <mxGeometry x="50" y="345" width="60" height="30" as="geometry" />
        </mxCell>
        <mxCell id="-Uyj4AZ34t3rxBjbGBbm-14" value="val. loc." style="ellipse;whiteSpace=wrap;html=1;align=center;fillColor=#d5e8d4;strokeColor=#82b366;fontColor=#445E36;fontStyle=1" vertex="1" parent="1">
          <mxGeometry x="50" y="385" width="60" height="30" as="geometry" />
        </mxCell>
        <mxCell id="-Uyj4AZ34t3rxBjbGBbm-15" value="" style="shape=rhombus;perimeter=rhombusPerimeter;whiteSpace=wrap;html=1;align=center;fillColor=#fff2cc;strokeColor=#d6b656;fontColor=#8A7537;fontStyle=1" vertex="1" parent="1">
          <mxGeometry x="420" y="190" width="120" height="60" as="geometry" />
        </mxCell>
        <mxCell id="-Uyj4AZ34t3rxBjbGBbm-16" value="" style="endArrow=none;html=1;rounded=0;exitX=1;exitY=0.5;exitDx=0;exitDy=0;entryX=0;entryY=0;entryDx=0;entryDy=0;" edge="1" parent="1" source="-Uyj4AZ34t3rxBjbGBbm-4" target="-Uyj4AZ34t3rxBjbGBbm-1">
          <mxGeometry relative="1" as="geometry">
            <mxPoint x="210" y="360" as="sourcePoint" />
            <mxPoint x="370" y="360" as="targetPoint" />
            <Array as="points">
              <mxPoint x="160" y="40" />
            </Array>
          </mxGeometry>
        </mxCell>
        <mxCell id="-Uyj4AZ34t3rxBjbGBbm-17" value="" style="endArrow=none;html=1;rounded=0;exitX=1;exitY=0.5;exitDx=0;exitDy=0;entryX=0;entryY=0;entryDx=0;entryDy=0;" edge="1" parent="1" source="-Uyj4AZ34t3rxBjbGBbm-6" target="-Uyj4AZ34t3rxBjbGBbm-1">
          <mxGeometry relative="1" as="geometry">
            <mxPoint x="190" y="360" as="sourcePoint" />
            <mxPoint x="350" y="360" as="targetPoint" />
            <Array as="points">
              <mxPoint x="160" y="80" />
            </Array>
          </mxGeometry>
        </mxCell>
        <mxCell id="-Uyj4AZ34t3rxBjbGBbm-18" value="" style="endArrow=none;html=1;rounded=0;exitX=1;exitY=0.5;exitDx=0;exitDy=0;entryX=0;entryY=0.25;entryDx=0;entryDy=0;" edge="1" parent="1" source="-Uyj4AZ34t3rxBjbGBbm-7" target="-Uyj4AZ34t3rxBjbGBbm-1">
          <mxGeometry relative="1" as="geometry">
            <mxPoint x="110" y="340" as="sourcePoint" />
            <mxPoint x="270" y="340" as="targetPoint" />
            <Array as="points">
              <mxPoint x="160" y="120" />
            </Array>
          </mxGeometry>
        </mxCell>
        <mxCell id="-Uyj4AZ34t3rxBjbGBbm-19" value="" style="endArrow=none;html=1;rounded=0;exitX=1;exitY=0.5;exitDx=0;exitDy=0;entryX=0;entryY=0.25;entryDx=0;entryDy=0;" edge="1" parent="1" source="-Uyj4AZ34t3rxBjbGBbm-8" target="-Uyj4AZ34t3rxBjbGBbm-1">
          <mxGeometry relative="1" as="geometry">
            <mxPoint x="140" y="360" as="sourcePoint" />
            <mxPoint x="300" y="360" as="targetPoint" />
            <Array as="points">
              <mxPoint x="160" y="160" />
            </Array>
          </mxGeometry>
        </mxCell>
        <mxCell id="-Uyj4AZ34t3rxBjbGBbm-20" value="" style="endArrow=none;html=1;rounded=0;exitX=1;exitY=0.5;exitDx=0;exitDy=0;entryX=0;entryY=0.5;entryDx=0;entryDy=0;" edge="1" parent="1" source="-Uyj4AZ34t3rxBjbGBbm-9" target="-Uyj4AZ34t3rxBjbGBbm-1">
          <mxGeometry relative="1" as="geometry">
            <mxPoint x="250" y="310" as="sourcePoint" />
            <mxPoint x="410" y="310" as="targetPoint" />
            <Array as="points">
              <mxPoint x="160" y="200" />
            </Array>
          </mxGeometry>
        </mxCell>
        <mxCell id="-Uyj4AZ34t3rxBjbGBbm-21" value="" style="endArrow=none;html=1;rounded=0;exitX=1;exitY=0.5;exitDx=0;exitDy=0;entryX=0;entryY=0.5;entryDx=0;entryDy=0;" edge="1" parent="1" source="-Uyj4AZ34t3rxBjbGBbm-10" target="-Uyj4AZ34t3rxBjbGBbm-1">
          <mxGeometry relative="1" as="geometry">
            <mxPoint x="300" y="340" as="sourcePoint" />
            <mxPoint x="460" y="340" as="targetPoint" />
            <Array as="points">
              <mxPoint x="160" y="240" />
            </Array>
          </mxGeometry>
        </mxCell>
        <mxCell id="-Uyj4AZ34t3rxBjbGBbm-22" value="" style="endArrow=none;html=1;rounded=0;exitX=1;exitY=0.5;exitDx=0;exitDy=0;entryX=0;entryY=0.75;entryDx=0;entryDy=0;" edge="1" parent="1" source="-Uyj4AZ34t3rxBjbGBbm-11" target="-Uyj4AZ34t3rxBjbGBbm-1">
          <mxGeometry relative="1" as="geometry">
            <mxPoint x="240" y="310" as="sourcePoint" />
            <mxPoint x="400" y="310" as="targetPoint" />
            <Array as="points">
              <mxPoint x="160" y="280" />
            </Array>
          </mxGeometry>
        </mxCell>
        <mxCell id="-Uyj4AZ34t3rxBjbGBbm-23" value="" style="endArrow=none;html=1;rounded=0;exitX=1;exitY=0.5;exitDx=0;exitDy=0;entryX=0;entryY=0.75;entryDx=0;entryDy=0;" edge="1" parent="1" source="-Uyj4AZ34t3rxBjbGBbm-12" target="-Uyj4AZ34t3rxBjbGBbm-1">
          <mxGeometry relative="1" as="geometry">
            <mxPoint x="160" y="330" as="sourcePoint" />
            <mxPoint x="320" y="330" as="targetPoint" />
            <Array as="points">
              <mxPoint x="160" y="320" />
            </Array>
          </mxGeometry>
        </mxCell>
        <mxCell id="-Uyj4AZ34t3rxBjbGBbm-24" value="" style="endArrow=none;html=1;rounded=0;exitX=1;exitY=0.5;exitDx=0;exitDy=0;entryX=0;entryY=1;entryDx=0;entryDy=0;" edge="1" parent="1" source="-Uyj4AZ34t3rxBjbGBbm-13" target="-Uyj4AZ34t3rxBjbGBbm-1">
          <mxGeometry relative="1" as="geometry">
            <mxPoint x="240" y="360" as="sourcePoint" />
            <mxPoint x="400" y="360" as="targetPoint" />
            <Array as="points">
              <mxPoint x="160" y="360" />
            </Array>
          </mxGeometry>
        </mxCell>
        <mxCell id="-Uyj4AZ34t3rxBjbGBbm-25" value="" style="endArrow=none;html=1;rounded=0;exitX=1;exitY=0.5;exitDx=0;exitDy=0;entryX=0;entryY=1;entryDx=0;entryDy=0;" edge="1" parent="1" source="-Uyj4AZ34t3rxBjbGBbm-14" target="-Uyj4AZ34t3rxBjbGBbm-1">
          <mxGeometry relative="1" as="geometry">
            <mxPoint x="180" y="330" as="sourcePoint" />
            <mxPoint x="340" y="330" as="targetPoint" />
            <Array as="points">
              <mxPoint x="160" y="400" />
            </Array>
          </mxGeometry>
        </mxCell>
        <mxCell id="-Uyj4AZ34t3rxBjbGBbm-44" value="Marca" style="whiteSpace=wrap;html=1;align=center;fillColor=#f8cecc;strokeColor=#b85450;fontColor=#B85450;labelBorderColor=none;labelBackgroundColor=none;fontStyle=1" vertex="1" parent="1">
          <mxGeometry x="640" y="480" width="100" height="40" as="geometry" />
        </mxCell>
        <mxCell id="-Uyj4AZ34t3rxBjbGBbm-45" value="" style="endArrow=none;html=1;rounded=0;exitX=1;exitY=0.5;exitDx=0;exitDy=0;entryX=0;entryY=0.5;entryDx=0;entryDy=0;" edge="1" parent="1" source="-Uyj4AZ34t3rxBjbGBbm-15" target="-Uyj4AZ34t3rxBjbGBbm-3">
          <mxGeometry relative="1" as="geometry">
            <mxPoint x="500" y="270" as="sourcePoint" />
            <mxPoint x="660" y="270" as="targetPoint" />
          </mxGeometry>
        </mxCell>
        <mxCell id="-Uyj4AZ34t3rxBjbGBbm-46" value="1" style="resizable=0;html=1;whiteSpace=wrap;align=right;verticalAlign=bottom;" connectable="0" vertex="1" parent="-Uyj4AZ34t3rxBjbGBbm-45">
          <mxGeometry x="1" relative="1" as="geometry" />
        </mxCell>
        <mxCell id="-Uyj4AZ34t3rxBjbGBbm-47" value="" style="shape=rhombus;perimeter=rhombusPerimeter;whiteSpace=wrap;html=1;align=center;fillColor=#fff2cc;strokeColor=#d6b656;fontColor=#8A7537;fontStyle=1" vertex="1" parent="1">
          <mxGeometry x="630" y="330" width="120" height="60" as="geometry" />
        </mxCell>
        <mxCell id="-Uyj4AZ34t3rxBjbGBbm-48" value="" style="endArrow=none;html=1;rounded=0;entryX=1;entryY=0.5;entryDx=0;entryDy=0;exitX=0;exitY=0.5;exitDx=0;exitDy=0;" edge="1" parent="1" source="-Uyj4AZ34t3rxBjbGBbm-15" target="-Uyj4AZ34t3rxBjbGBbm-1">
          <mxGeometry relative="1" as="geometry">
            <mxPoint x="420" y="360" as="sourcePoint" />
            <mxPoint x="580" y="360" as="targetPoint" />
          </mxGeometry>
        </mxCell>
        <mxCell id="-Uyj4AZ34t3rxBjbGBbm-49" value="N" style="resizable=0;html=1;whiteSpace=wrap;align=right;verticalAlign=bottom;" connectable="0" vertex="1" parent="-Uyj4AZ34t3rxBjbGBbm-48">
          <mxGeometry x="1" relative="1" as="geometry">
            <mxPoint x="10" as="offset" />
          </mxGeometry>
        </mxCell>
        <mxCell id="-Uyj4AZ34t3rxBjbGBbm-50" value="" style="endArrow=none;html=1;rounded=0;exitX=0.5;exitY=1;exitDx=0;exitDy=0;entryX=0.5;entryY=0;entryDx=0;entryDy=0;" edge="1" parent="1" source="-Uyj4AZ34t3rxBjbGBbm-47" target="-Uyj4AZ34t3rxBjbGBbm-44">
          <mxGeometry relative="1" as="geometry">
            <mxPoint x="670" y="430" as="sourcePoint" />
            <mxPoint x="830" y="430" as="targetPoint" />
          </mxGeometry>
        </mxCell>
        <mxCell id="-Uyj4AZ34t3rxBjbGBbm-51" value="1" style="resizable=0;html=1;whiteSpace=wrap;align=right;verticalAlign=bottom;" connectable="0" vertex="1" parent="-Uyj4AZ34t3rxBjbGBbm-50">
          <mxGeometry x="1" relative="1" as="geometry" />
        </mxCell>
        <mxCell id="-Uyj4AZ34t3rxBjbGBbm-52" value="" style="endArrow=none;html=1;rounded=0;entryX=0.5;entryY=1;entryDx=0;entryDy=0;exitX=0.5;exitY=0;exitDx=0;exitDy=0;" edge="1" parent="1" source="-Uyj4AZ34t3rxBjbGBbm-47" target="-Uyj4AZ34t3rxBjbGBbm-3">
          <mxGeometry relative="1" as="geometry">
            <mxPoint x="310" y="330" as="sourcePoint" />
            <mxPoint x="470" y="330" as="targetPoint" />
          </mxGeometry>
        </mxCell>
        <mxCell id="-Uyj4AZ34t3rxBjbGBbm-53" value="N" style="resizable=0;html=1;whiteSpace=wrap;align=right;verticalAlign=bottom;" connectable="0" vertex="1" parent="-Uyj4AZ34t3rxBjbGBbm-52">
          <mxGeometry x="1" relative="1" as="geometry">
            <mxPoint y="15" as="offset" />
          </mxGeometry>
        </mxCell>
        <mxCell id="-Uyj4AZ34t3rxBjbGBbm-54" value="Aluga" style="shape=rhombus;perimeter=rhombusPerimeter;whiteSpace=wrap;html=1;align=center;fillColor=#fff2cc;strokeColor=#d6b656;fontColor=#8A7537;fontStyle=1" vertex="1" parent="1">
          <mxGeometry x="210" y="330" width="120" height="60" as="geometry" />
        </mxCell>
        <mxCell id="-Uyj4AZ34t3rxBjbGBbm-55" value="Clientre" style="whiteSpace=wrap;html=1;align=center;fillColor=#f8cecc;strokeColor=#b85450;fontColor=#B85450;labelBorderColor=none;labelBackgroundColor=none;fontStyle=1" vertex="1" parent="1">
          <mxGeometry x="220" y="480" width="100" height="40" as="geometry" />
        </mxCell>
        <mxCell id="-Uyj4AZ34t3rxBjbGBbm-56" value="codigo" style="ellipse;whiteSpace=wrap;html=1;align=center;fontStyle=5;fillColor=#d5e8d4;strokeColor=#82b366;fontColor=#445E36;" vertex="1" parent="1">
          <mxGeometry x="50" y="485" width="60" height="30" as="geometry" />
        </mxCell>
        <mxCell id="-Uyj4AZ34t3rxBjbGBbm-57" value="codigo" style="ellipse;whiteSpace=wrap;html=1;align=center;fontStyle=5;fillColor=#d5e8d4;strokeColor=#82b366;fontColor=#445E36;" vertex="1" parent="1">
          <mxGeometry x="850" y="205" width="60" height="30" as="geometry" />
        </mxCell>
        <mxCell id="-Uyj4AZ34t3rxBjbGBbm-58" value="codigo" style="ellipse;whiteSpace=wrap;html=1;align=center;fontStyle=4;fillColor=#d5e8d4;strokeColor=#82b366;fontColor=#445E36;" vertex="1" parent="1">
          <mxGeometry x="850" y="485" width="60" height="30" as="geometry" />
        </mxCell>
        <mxCell id="-Uyj4AZ34t3rxBjbGBbm-61" value="" style="endArrow=none;html=1;rounded=0;entryX=0.5;entryY=1;entryDx=0;entryDy=0;exitX=0.5;exitY=0;exitDx=0;exitDy=0;" edge="1" parent="1" source="-Uyj4AZ34t3rxBjbGBbm-54" target="-Uyj4AZ34t3rxBjbGBbm-1">
          <mxGeometry relative="1" as="geometry">
            <mxPoint x="700" y="340" as="sourcePoint" />
            <mxPoint x="700" y="250" as="targetPoint" />
          </mxGeometry>
        </mxCell>
        <mxCell id="-Uyj4AZ34t3rxBjbGBbm-62" value="N" style="resizable=0;html=1;whiteSpace=wrap;align=right;verticalAlign=bottom;" connectable="0" vertex="1" parent="-Uyj4AZ34t3rxBjbGBbm-61">
          <mxGeometry x="1" relative="1" as="geometry">
            <mxPoint y="15" as="offset" />
          </mxGeometry>
        </mxCell>
        <mxCell id="-Uyj4AZ34t3rxBjbGBbm-63" value="" style="endArrow=none;html=1;rounded=0;exitX=0.5;exitY=1;exitDx=0;exitDy=0;entryX=0.5;entryY=0;entryDx=0;entryDy=0;" edge="1" parent="1" source="-Uyj4AZ34t3rxBjbGBbm-54" target="-Uyj4AZ34t3rxBjbGBbm-55">
          <mxGeometry relative="1" as="geometry">
            <mxPoint x="350" y="450" as="sourcePoint" />
            <mxPoint x="510" y="450" as="targetPoint" />
          </mxGeometry>
        </mxCell>
        <mxCell id="-Uyj4AZ34t3rxBjbGBbm-64" value="N" style="resizable=0;html=1;whiteSpace=wrap;align=right;verticalAlign=bottom;" connectable="0" vertex="1" parent="-Uyj4AZ34t3rxBjbGBbm-63">
          <mxGeometry x="1" relative="1" as="geometry" />
        </mxCell>
        <mxCell id="-Uyj4AZ34t3rxBjbGBbm-65" value="dataInic" style="ellipse;whiteSpace=wrap;html=1;align=center;fillColor=#d5e8d4;strokeColor=#82b366;fontColor=#445E36;fontStyle=1" vertex="1" parent="1">
          <mxGeometry x="330" y="305" width="60" height="30" as="geometry" />
        </mxCell>
        <mxCell id="-Uyj4AZ34t3rxBjbGBbm-66" value="dataFim" style="ellipse;whiteSpace=wrap;html=1;align=center;fillColor=#d5e8d4;strokeColor=#82b366;fontColor=#445E36;fontStyle=1" vertex="1" parent="1">
          <mxGeometry x="330" y="385" width="60" height="30" as="geometry" />
        </mxCell>
        <mxCell id="-Uyj4AZ34t3rxBjbGBbm-67" value="" style="endArrow=none;html=1;rounded=0;exitX=1;exitY=1;exitDx=0;exitDy=0;entryX=0;entryY=0.5;entryDx=0;entryDy=0;" edge="1" parent="1" source="-Uyj4AZ34t3rxBjbGBbm-54" target="-Uyj4AZ34t3rxBjbGBbm-66">
          <mxGeometry relative="1" as="geometry">
            <mxPoint x="370" y="440" as="sourcePoint" />
            <mxPoint x="530" y="440" as="targetPoint" />
          </mxGeometry>
        </mxCell>
        <mxCell id="-Uyj4AZ34t3rxBjbGBbm-68" value="" style="endArrow=none;html=1;rounded=0;exitX=1;exitY=0;exitDx=0;exitDy=0;entryX=0;entryY=0.5;entryDx=0;entryDy=0;" edge="1" parent="1" source="-Uyj4AZ34t3rxBjbGBbm-54" target="-Uyj4AZ34t3rxBjbGBbm-65">
          <mxGeometry relative="1" as="geometry">
            <mxPoint x="310" y="280" as="sourcePoint" />
            <mxPoint x="470" y="280" as="targetPoint" />
          </mxGeometry>
        </mxCell>
        <mxCell id="-Uyj4AZ34t3rxBjbGBbm-69" value="" style="endArrow=none;html=1;rounded=0;exitX=1;exitY=0.5;exitDx=0;exitDy=0;entryX=0;entryY=0.5;entryDx=0;entryDy=0;" edge="1" parent="1" source="-Uyj4AZ34t3rxBjbGBbm-56" target="-Uyj4AZ34t3rxBjbGBbm-55">
          <mxGeometry relative="1" as="geometry">
            <mxPoint x="60" y="550" as="sourcePoint" />
            <mxPoint x="220" y="550" as="targetPoint" />
          </mxGeometry>
        </mxCell>
        <mxCell id="-Uyj4AZ34t3rxBjbGBbm-70" value="" style="endArrow=none;html=1;rounded=0;exitX=1;exitY=0.5;exitDx=0;exitDy=0;entryX=0;entryY=0.5;entryDx=0;entryDy=0;" edge="1" parent="1" source="-Uyj4AZ34t3rxBjbGBbm-3" target="-Uyj4AZ34t3rxBjbGBbm-57">
          <mxGeometry relative="1" as="geometry">
            <mxPoint x="730" y="260" as="sourcePoint" />
            <mxPoint x="890" y="260" as="targetPoint" />
          </mxGeometry>
        </mxCell>
        <mxCell id="-Uyj4AZ34t3rxBjbGBbm-71" value="" style="endArrow=none;html=1;rounded=0;exitX=1;exitY=0.5;exitDx=0;exitDy=0;entryX=0;entryY=0.5;entryDx=0;entryDy=0;" edge="1" parent="1" source="-Uyj4AZ34t3rxBjbGBbm-44" target="-Uyj4AZ34t3rxBjbGBbm-58">
          <mxGeometry relative="1" as="geometry">
            <mxPoint x="840" y="340" as="sourcePoint" />
            <mxPoint x="1000" y="340" as="targetPoint" />
          </mxGeometry>
        </mxCell>
        <mxCell id="-Uyj4AZ34t3rxBjbGBbm-72" value="&lt;h1&gt;Locação de Carro&lt;/h1&gt;&lt;p&gt;&lt;span&gt;&lt;/span&gt;&lt;/p&gt;&lt;p&gt;A empresa tem muitos automóveis. Cada automóvel tem atributos como número da placa, cor, ano, tipo de combustível, número de portas, quilometragem, renavam, chassi, valor de locação etc.&amp;nbsp;&lt;/p&gt;&lt;p&gt;Cada carro tem um modelo e uma marca, mas um modelo pode relacionar-se a muitos carros e uma marca pode referir-se a muitos modelos, embora cada modelo só tenha uma marca específica.&amp;nbsp;&lt;/p&gt;&lt;p&gt;Um carro pode ser alugado por muitos clientes, em momentos diferentes, e um cliente pode alugar muitos carros. É preciso saber quais carros estão locados ou não. Sempre que um carro for locado é preciso armazenar a data e a hora de sua locação e, quando for devolvido, a data e hora de devolução.&lt;/p&gt;&lt;p&gt;&lt;span dir=&quot;ltr&quot; class=&quot;ui-provider gr b c d e f g h i j k l m n o p q r s t u v w x y z ab ac ae af ag ah ai aj ak&quot;&gt;&lt;span style=&quot;font-family: -apple-system, BlinkMacSystemFont, &amp;quot;Segoe UI&amp;quot;, system-ui, &amp;quot;Apple Color Emoji&amp;quot;, &amp;quot;Segoe UI Emoji&amp;quot;, &amp;quot;Segoe UI Web&amp;quot;, sans-serif; font-size: 14px;&quot;&gt;&lt;br&gt;&lt;/span&gt;&lt;/span&gt;&lt;/p&gt;" style="text;html=1;strokeColor=none;fillColor=none;spacing=5;spacingTop=-20;whiteSpace=wrap;overflow=hidden;rounded=0;" vertex="1" parent="1">
          <mxGeometry x="40" y="-170" width="880" height="170" as="geometry" />
        </mxCell>
      </root>
    </mxGraphModel>
  </diagram>
</mxfile>
